<svg width="344" height="539" viewBox="0 0 344 539" fill="none" xmlns="http://www.w3.org/2000/svg">
<path d="M244.311 536.614C243.831 535.35 243.126 531.187 242.745 527.364C242.365 523.541 241.419 517.573 240.644 514.101C239.869 510.63 239.235 505.583 239.235 502.886C239.235 500.189 238.573 493.129 237.765 487.198C236.956 481.266 235.827 470.113 235.255 462.413C232.765 428.854 231.214 410.274 230.749 408.413C230.074 405.716 226.52 355.337 225.212 329.913C224.632 318.638 223.503 300.638 222.703 289.913C221.904 279.188 221.244 266.363 221.236 261.413C221.222 251.571 219.828 241.106 218.332 239.61C216.354 237.632 212.346 240.205 199.735 251.547C182.226 267.294 159.111 288.9 151.594 296.545L145.453 302.79L144.778 319.602C143.783 344.369 140.435 391.028 138.718 404.042C130.22 468.471 113.05 497.536 76.2671 509.751C66.1216 513.121 65.1661 513.252 50.235 513.331C35.4245 513.41 34.3792 513.282 26.735 510.453C9.77761 504.177 0.100338 488.236 0.000927616 466.413C-0.0475724 455.774 1.79881 448.058 7.18167 436.407C17.5834 413.893 33.3073 395.389 73.235 358.679C83.41 349.323 96.235 337.524 101.735 332.457C107.235 327.391 116.685 318.85 122.735 313.477C128.785 308.104 134.137 303.004 134.628 302.144C135.12 301.283 135.237 295.817 134.89 289.996C134.267 279.547 130.708 250.71 129.712 248.033C129.429 247.275 128.555 242.55 127.769 237.533C126.246 227.817 124.275 216.419 121.869 203.413C120.455 195.769 116.793 180.087 110.075 152.913C105.765 135.478 96.3361 107.367 87.1829 84.6639C82.756 73.6839 82.5816 69.8984 86.5041 69.9329C88.21 69.9479 90.0294 71.9963 94.235 78.6372C106.614 98.1838 109.953 106.02 114.596 126.413C121.33 155.997 125.374 174.736 126.681 182.413C127.524 187.363 128.879 194.113 129.692 197.413C131.467 204.615 137.392 242.092 139.731 260.913C142.38 282.219 143.061 285.998 144.701 288.501C145.744 290.093 146.802 290.644 147.987 290.212C151.391 288.972 162.055 279.161 188.995 252.489C210.086 231.607 216.478 224.697 217.24 221.956C217.781 220.008 218.248 210.763 218.279 201.413C218.309 192.063 218.751 178.338 219.261 170.913C224.355 96.7853 225.14 87.1778 227.385 71.4133C231.462 42.7917 240.568 19.8518 251.752 10.0325C253.611 8.40001 258.193 5.5927 261.934 3.79402C267.695 1.02388 270.112 0.462166 277.735 0.121466C285.26 -0.214814 287.637 0.076369 292.235 1.89817C311.013 9.33718 329.023 27.3414 338.852 48.4996C345.775 63.4003 345.235 78.1955 337.193 94.0105C333.782 100.716 322.288 116.418 313.839 125.913C309.679 130.588 303.187 138.013 299.413 142.413C295.638 146.813 290.791 152.306 288.642 154.62C286.493 156.934 282.485 161.376 279.735 164.491C271.322 174.02 254.378 192.641 241.424 206.591C233.781 214.823 228.758 221.091 228.174 223.124C227.658 224.926 227.238 233.603 227.242 242.407C227.249 257.491 229.597 309.105 230.724 318.913C231.008 321.388 231.915 335.338 232.739 349.913C234.983 389.58 236.221 408.242 236.718 409.913C236.963 410.738 237.86 420.802 238.71 432.276C239.561 443.751 240.459 453.466 240.706 453.866C240.953 454.266 241.626 460.178 242.201 467.003C242.776 473.829 244.164 487.963 245.285 498.413C246.407 508.863 247.593 522.251 247.921 528.163C248.455 537.768 248.341 538.913 246.852 538.913C245.935 538.913 244.792 537.879 244.311 536.614ZM67.3088 501.345C88.1175 497.883 101.781 487.124 112.941 465.413C119.647 452.368 125.913 432.87 127.724 419.413C128.094 416.663 128.805 413.063 129.304 411.413C131.355 404.633 133.352 379.764 133.923 353.877C134.594 323.477 134.055 318.913 129.79 318.913C126.492 318.913 108.456 335.515 70.1365 373.824C30.7745 413.175 20.1965 426.384 15.0361 442.629C12.035 452.076 11.809 474.591 14.6291 483.186C16.9991 490.409 22.8379 497.214 28.5317 499.389C38.1248 503.052 52.6439 503.785 67.3088 501.345ZM233.749 204.312C235.897 202.904 261.276 176.146 274.861 160.966C277.542 157.97 281.796 153.245 284.316 150.466C291.532 142.507 309.263 120.37 317.119 109.513C328.121 94.3087 335.235 77.6924 335.235 67.2004C335.235 55.7142 324.63 37.368 309.532 22.7333C299.049 12.5724 293.224 9.91329 281.448 9.91329C270.61 9.91329 263.904 11.9994 256.789 17.5835C250.831 22.2593 248.613 25.8032 243.439 38.9133C238.435 51.5942 236.609 59.3225 233.282 81.9133C229.327 108.759 228.35 123.137 227.569 165.935C226.82 206.961 227.095 208.672 233.749 204.312Z" fill="white"/>
</svg>
